<?xml version="1.0" standalone="no"?>
<!DOCTYPE svg PUBLIC "-//W3C//DTD SVG 20010904//EN"
 "http://www.w3.org/TR/2001/REC-SVG-20010904/DTD/svg10.dtd">
<svg version="1.0" xmlns="http://www.w3.org/2000/svg"
 width="300.000000pt" height="300.000000pt" viewBox="0 0 300.000000 300.000000"
 preserveAspectRatio="xMidYMid meet">
<metadata>
Created by potrace 1.11, written by Peter Selinger 2001-2013
</metadata>
<g transform="translate(0.000000,300.000000) scale(0.100000,-0.100000)"
fill="#000000" stroke="none">
<path d="M1483 2982 c-32 -5 -73 -58 -73 -95 -1 -63 -1 -303 -1 -324 1 -34 53
-78 94 -81 28 -2 44 4 69 27 l32 29 1 173 c1 203 0 211 -31 243 -26 25 -54 34
-91 28z"/>
<path d="M665 2728 c-34 -20 -46 -36 -52 -72 -5 -33 12 -77 47 -119 6 -6 34
-43 63 -82 28 -38 54 -72 57 -75 3 -3 14 -18 23 -33 52 -82 171 -56 184 39 5
37 0 46 -92 169 -54 72 -107 140 -119 153 -25 26 -82 36 -111 20z"/>
<path d="M2210 2731 c-24 -6 -148 -159 -221 -270 -43 -67 -30 -129 34 -156 37
-15 81 -8 105 19 11 11 63 79 116 150 82 110 96 135 96 167 0 66 -62 109 -130
90z"/>
<path d="M1325 2349 c-362 -79 -633 -355 -700 -714 -27 -139 -11 -356 34 -460
31 -72 79 -166 104 -203 l29 -44 0 -464 0 -464 591 2 592 3 0 129 c0 78 4 130
10 132 182 41 303 146 345 304 6 24 12 89 13 144 l2 101 98 5 c89 5 101 8 118
29 35 43 34 66 -12 189 -23 64 -47 128 -52 142 -6 14 -11 27 -12 30 -1 3 -5
14 -10 25 -55 137 -68 185 -71 255 -9 272 -119 495 -339 685 -65 56 -230 142
-306 160 -171 38 -304 43 -434 14z"/>
<path d="M200 2181 c-61 -14 -93 -64 -77 -118 14 -46 26 -54 178 -130 157 -77
188 -82 232 -33 22 25 27 39 24 64 -8 60 -24 74 -160 142 -158 79 -165 82
-197 75z"/>
<path d="M2569 2114 c-82 -41 -153 -83 -158 -93 -24 -43 -22 -82 3 -116 43
-56 70 -53 231 26 77 38 147 75 156 82 19 15 36 65 31 94 -3 23 -48 73 -66 74
-6 0 -19 2 -29 4 -11 2 -86 -30 -168 -71z"/>
</g>
</svg>
